<svg width="22" height="19" viewBox="0 0 22 19" fill="none" xmlns="http://www.w3.org/2000/svg">
<path d="M1.22222 18.75C0.875926 18.75 0.585852 18.602 0.352 18.306C0.117333 18.011 0 17.6451 0 17.2083C0 16.7715 0.117333 16.4056 0.352 16.1107C0.585852 15.8147 0.875926 15.6667 1.22222 15.6667H20.7778C21.1241 15.6667 21.4141 15.8147 21.648 16.1107C21.8827 16.4056 22 16.7715 22 17.2083C22 17.6451 21.8827 18.011 21.648 18.306C21.4141 18.602 21.1241 18.75 20.7778 18.75H1.22222ZM1.22222 11.0417C0.875926 11.0417 0.585852 10.8937 0.352 10.5977C0.117333 10.3027 0 9.93681 0 9.5C0 9.06319 0.117333 8.69679 0.352 8.40079C0.585852 8.10582 0.875926 7.95833 1.22222 7.95833H20.7778C21.1241 7.95833 21.4141 8.10582 21.648 8.40079C21.8827 8.69679 22 9.06319 22 9.5C22 9.93681 21.8827 10.3027 21.648 10.5977C21.4141 10.8937 21.1241 11.0417 20.7778 11.0417H1.22222ZM1.22222 3.33333C0.875926 3.33333 0.585852 3.18585 0.352 2.89087C0.117333 2.59487 0 2.22847 0 1.79167C0 1.35486 0.117333 0.988459 0.352 0.692459C0.585852 0.397486 0.875926 0.25 1.22222 0.25H20.7778C21.1241 0.25 21.4141 0.397486 21.648 0.692459C21.8827 0.988459 22 1.35486 22 1.79167C22 2.22847 21.8827 2.59487 21.648 2.89087C21.4141 3.18585 21.1241 3.33333 20.7778 3.33333H1.22222Z" fill="black"/>
</svg>