<svg width="341" height="99" viewBox="0 0 341 99" fill="none" xmlns="http://www.w3.org/2000/svg">
<g filter="url(#filter0_d_35_102)">
<path d="M4 13C4 5.8203 9.8203 0 17 0H324C331.18 0 337 5.8203 337 13V78C337 85.1797 331.18 91 324 91H17C9.82029 91 4 85.1797 4 78V13Z" fill="#6C7B5B"/>
<path d="M5 13C5 6.37258 10.3726 1 17 1H324C330.627 1 336 6.37258 336 13V78C336 84.6274 330.627 90 324 90H17C10.3726 90 5 84.6274 5 78V13Z" stroke="#B8794B" stroke-width="2"/>
</g>
<defs>
<filter id="filter0_d_35_102" x="0" y="0" width="341" height="99" filterUnits="userSpaceOnUse" color-interpolation-filters="sRGB">
<feFlood flood-opacity="0" result="BackgroundImageFix"/>
<feColorMatrix in="SourceAlpha" type="matrix" values="0 0 0 0 0 0 0 0 0 0 0 0 0 0 0 0 0 0 127 0" result="hardAlpha"/>
<feOffset dy="4"/>
<feGaussianBlur stdDeviation="2"/>
<feComposite in2="hardAlpha" operator="out"/>
<feColorMatrix type="matrix" values="0 0 0 0 0 0 0 0 0 0 0 0 0 0 0 0 0 0 0.25 0"/>
<feBlend mode="normal" in2="BackgroundImageFix" result="effect1_dropShadow_35_102"/>
<feBlend mode="normal" in="SourceGraphic" in2="effect1_dropShadow_35_102" result="shape"/>
</filter>
</defs>
</svg>
